<svg width="22" height="28" viewBox="0 0 22 28" fill="none" xmlns="http://www.w3.org/2000/svg">
<path d="M18.7994 10.219L18.0542 10.3036L18.7994 10.219ZM19.3584 15.1441L20.1036 15.0595L19.3584 15.1441ZM2.6416 15.1441L1.89638 15.0595L2.6416 15.1441ZM3.20058 10.219L3.9458 10.3036L3.20058 10.219ZM1.55973 17.5901L0.988624 17.104H0.988624L1.55973 17.5901ZM20.4403 17.5901L19.8692 18.0763V18.0763L20.4403 17.5901ZM13.8374 4.46708H13.0874C13.0874 4.78766 13.2912 5.07279 13.5945 5.17664L13.8374 4.46708ZM8.16257 4.46708L8.40551 5.17664C8.70881 5.07279 8.91257 4.78766 8.91257 4.46708H8.16257ZM15.4523 24.2632C15.5977 23.8753 15.4011 23.4431 15.0132 23.2977C14.6253 23.1523 14.1931 23.3489 14.0477 23.7368L15.4523 24.2632ZM7.9523 23.7368C7.80693 23.3489 7.37466 23.1523 6.98679 23.2977C6.59893 23.4431 6.40234 23.8753 6.5477 24.2632L7.9523 23.7368ZM18.2215 20.75H3.77852V22.25H18.2215V20.75ZM18.0542 10.3036L18.6132 15.2286L20.1036 15.0595L19.5446 10.1344L18.0542 10.3036ZM3.38681 15.2286L3.9458 10.3036L2.45536 10.1344L1.89638 15.0595L3.38681 15.2286ZM2.13084 18.0763C2.82957 17.2554 3.26847 16.2714 3.38681 15.2286L1.89638 15.0595C1.81337 15.7908 1.50403 16.4985 0.988624 17.104L2.13084 18.0763ZM18.6132 15.2286C18.7315 16.2714 19.1704 17.2554 19.8692 18.0763L21.0114 17.104C20.496 16.4985 20.1866 15.7908 20.1036 15.0595L18.6132 15.2286ZM3.77852 20.75C2.89493 20.75 2.25208 20.3111 1.95013 19.779C1.65558 19.26 1.66195 18.6271 2.13084 18.0763L0.988624 17.104C0.0862242 18.1641 0.0592566 19.4862 0.645553 20.5193C1.22445 21.5394 2.37663 22.25 3.77852 22.25V20.75ZM18.2215 22.25C19.6234 22.25 20.7756 21.5394 21.3544 20.5193C21.9407 19.4862 21.9138 18.1641 21.0114 17.104L19.8692 18.0763C20.338 18.6271 20.3444 19.26 20.0499 19.779C19.7479 20.3111 19.1051 20.75 18.2215 20.75V22.25ZM14.5874 4.46708V4.33743H13.0874V4.46708H14.5874ZM19.5446 10.1344C19.2051 7.14292 16.9836 4.75156 14.0804 3.75751L13.5945 5.17664C16.0472 6.01642 17.7909 7.98366 18.0542 10.3036L19.5446 10.1344ZM8.91257 4.46708V4.33743H7.41257V4.46708H8.91257ZM3.9458 10.3036C4.2091 7.98367 5.95279 6.01642 8.40551 5.17664L7.91962 3.75751C5.01636 4.75156 2.79489 7.14292 2.45536 10.1344L3.9458 10.3036ZM11 2.25C12.1529 2.25 13.0874 3.18458 13.0874 4.33743H14.5874C14.5874 2.35615 12.9813 0.75 11 0.75V2.25ZM11 0.75C9.01871 0.75 7.41257 2.35615 7.41257 4.33743H8.91257C8.91257 3.18458 9.84714 2.25 11 2.25V0.75ZM14.0477 23.7368C13.6158 24.8892 12.4308 25.75 11 25.75V27.25C13.0317 27.25 14.7925 26.0238 15.4523 24.2632L14.0477 23.7368ZM11 25.75C9.56916 25.75 8.38419 24.8892 7.9523 23.7368L6.5477 24.2632C7.20752 26.0238 8.96826 27.25 11 27.25V25.75Z" fill="#B2B7B9"/>
</svg>
