<svg width="19" height="19" viewBox="0 0 19 19" fill="none" xmlns="http://www.w3.org/2000/svg">
<path d="M9.5 0C4.25363 0 0 4.25363 0 9.5C0 14.7464 4.25363 19 9.5 19C14.7464 19 19 14.7464 19 9.5C19 4.25363 14.7464 0 9.5 0ZM10.6194 9.5C10.6194 9.5 13.1045 11.985 13.2264 12.107C13.5359 12.4165 13.5359 12.9176 13.2264 13.2264C12.9168 13.5359 12.4157 13.5359 12.107 13.2264C11.985 13.1053 9.5 10.6194 9.5 10.6194C9.5 10.6194 7.01496 13.1045 6.89304 13.2264C6.5835 13.5359 6.08238 13.5359 5.77363 13.2264C5.46408 12.9168 5.46408 12.4157 5.77363 12.107C5.89475 11.985 8.38058 9.5 8.38058 9.5C8.38058 9.5 5.89554 7.01496 5.77363 6.89304C5.46408 6.5835 5.46408 6.08238 5.77363 5.77363C6.08317 5.46408 6.58429 5.46408 6.89304 5.77363C7.01496 5.89475 9.5 8.38058 9.5 8.38058C9.5 8.38058 11.985 5.89554 12.107 5.77363C12.4165 5.46408 12.9176 5.46408 13.2264 5.77363C13.5359 6.08317 13.5359 6.58429 13.2264 6.89304C13.1053 7.01496 10.6194 9.5 10.6194 9.5Z" fill="#B2B7B9"/>
</svg>
