<svg width="16" height="18" viewBox="0 0 16 18" fill="none" xmlns="http://www.w3.org/2000/svg">
<path d="M14.2222 0C14.2222 0.4968 13.824 0.9 13.3333 0.9C12.8427 0.9 12.4444 0.4968 12.4444 0H10.6667C10.6667 0.4968 10.2684 0.9 9.77778 0.9C9.28711 0.9 8.88889 0.4968 8.88889 0H7.11111C7.11111 0.4968 6.71289 0.9 6.22222 0.9C5.73156 0.9 5.33333 0.4968 5.33333 0H3.55556C3.55556 0.4968 3.15733 0.9 2.66667 0.9C2.176 0.9 1.77778 0.4968 1.77778 0H0V18H16V0H14.2222ZM9.77778 14.4H2.66667V12.6H9.77778V14.4ZM9.77778 10.8H2.66667V9H9.77778V10.8ZM13.3333 14.4H11.5556V12.6H13.3333V14.4ZM13.3333 10.8H11.5556V9H13.3333V10.8ZM13.3333 6.3H2.66667V4.5H13.3333V6.3Z" fill="#232323"/>
</svg>
