<svg width="19" height="19" viewBox="0 0 19 19" fill="none" xmlns="http://www.w3.org/2000/svg">
<path d="M1.58933 5.96246L1.58911 5.96275L6.93801 10.1366C6.96837 10.1603 6.98611 10.1966 6.98611 10.2351V18.2086C6.98617 18.331 7.01994 18.4511 7.08372 18.5556C7.1475 18.6601 7.23882 18.745 7.34767 18.8011C7.45652 18.8571 7.5787 18.8821 7.70082 18.8733C7.8229 18.8645 7.9402 18.8222 8.03987 18.7512L1.58933 5.96246ZM1.58933 5.96246L1.58259 5.95798C0.662938 5.23128 0.125 4.12238 0.125 2.95024V1.31947C0.125 0.668813 0.668807 0.125 1.31944 0.125H17.6806C18.3312 0.125 18.875 0.668813 18.875 1.31947V2.95024C18.875 4.12186 18.3375 5.23031 17.4186 5.95704L17.4185 5.95683L17.4109 5.96275L12.062 10.1366C12.0316 10.1603 12.0139 10.1966 12.0139 10.2351V15.5697C12.0139 15.5697 12.0139 15.5697 12.0139 15.5697C12.0138 15.6758 11.9885 15.7804 11.9399 15.8748C11.8912 15.9692 11.8208 16.0506 11.7344 16.1122L11.7343 16.1122L8.03995 18.7511L1.58933 5.96246ZM1.58333 1.45836C1.5143 1.45836 1.45833 1.51432 1.45833 1.58336V2.95024C1.45833 3.71657 1.8088 4.43859 2.41102 4.9132L2.4115 4.91357L8.06243 9.32244L8.06249 9.32249C8.14252 9.38485 8.20727 9.46465 8.2518 9.55581C8.29632 9.64697 8.31946 9.7471 8.31944 9.84855V9.84857V16.6706C8.31944 16.7175 8.34561 16.7603 8.38725 16.7818C8.42889 16.8032 8.479 16.7996 8.51711 16.7723L10.6282 15.2642C10.6611 15.2408 10.6806 15.2029 10.6806 15.1625V9.84857V9.84855C10.6805 9.7471 10.7037 9.64697 10.7482 9.55581C10.7927 9.46465 10.8575 9.38485 10.9375 9.32249L10.9376 9.32244L16.5885 4.91357L16.589 4.9132C17.1912 4.43859 17.5417 3.71657 17.5417 2.95024V1.58336C17.5417 1.51432 17.4857 1.45836 17.4167 1.45836H1.58333Z" fill="#DCDDDF" stroke="#111315" stroke-width="0.25" stroke-linejoin="round"/>
</svg>
