<svg width="19" height="19" viewBox="0 0 19 19" fill="none" xmlns="http://www.w3.org/2000/svg">
<path d="M18.4656 17.144L18.4678 17.1462C18.5564 17.2326 18.627 17.3357 18.6754 17.4495C18.7239 17.5634 18.7492 17.6857 18.75 17.8095C18.7508 17.9332 18.727 18.0558 18.68 18.1703L18.9113 18.2652L18.68 18.1703C18.633 18.2848 18.5638 18.3888 18.4763 18.4763C18.3888 18.5638 18.2848 18.633 18.1703 18.68C18.0559 18.727 17.9332 18.7508 17.8095 18.75C17.6858 18.7492 17.5634 18.7239 17.4496 18.6754C17.3357 18.627 17.2326 18.5564 17.1463 18.4678L17.1463 18.4678L17.144 18.4656L12.9576 14.2789L12.8053 14.1265L12.6321 14.2547C11.0571 15.4204 9.09956 15.9474 7.15223 15.73C5.20489 15.5126 3.41178 14.5668 2.13261 13.0825C0.853442 11.5981 0.182833 9.68495 0.255319 7.72676C0.327805 5.76857 1.13802 3.91021 2.52343 2.5245C3.90884 1.13878 5.76697 0.328205 7.72504 0.25537C9.68312 0.182535 11.5963 0.852832 13.0808 2.13179C14.5654 3.41076 15.5114 5.20378 15.7291 7.15118C15.9469 9.09857 15.4202 11.0563 14.2549 12.6316L14.1268 12.8047L14.2791 12.957L18.4656 17.1439L18.4656 17.144ZM8.03212 13.9086H8.0324C9.59039 13.9068 11.0841 13.2871 12.1857 12.1854C13.2874 11.0837 13.9071 9.58996 13.9088 8.03192V8.03163C13.9088 6.86929 13.5642 5.73304 12.9184 4.76658C12.2727 3.80012 11.3549 3.04685 10.281 2.60204C9.20721 2.15723 8.0256 2.04084 6.88563 2.26761C5.74566 2.49437 4.69853 3.0541 3.87666 3.876C3.05479 4.69791 2.49509 5.74508 2.26834 6.8851C2.04158 8.02511 2.15796 9.20677 2.60275 10.2806C3.04755 11.3545 3.80078 12.2724 4.7672 12.9181C5.73361 13.5639 6.86982 13.9086 8.03212 13.9086Z" fill="#DEDEE0" stroke="#232323" stroke-width="0.5"/>
</svg>
