<svg width="36" height="37" viewBox="0 0 36 37" fill="none" xmlns="http://www.w3.org/2000/svg">
<path d="M17.8775 1.76565C25.2685 1.76565 31.6615 4.64628 34.7455 8.83608C32.8137 3.75482 25.9938 0 17.8775 0C9.76115 0 2.94096 3.75482 1.00946 8.83608C4.09341 4.64596 10.4864 1.76565 17.8775 1.76565Z" fill="white"/>
<path d="M3.38859 16.6449H0V12.6893H11.2638V16.6449H7.85599V35.9494H3.38892L3.38859 16.6449Z" fill="white"/>
<path d="M12.8492 12.6893H22.497V16.6452H17.3287V21.9457H22.204V25.9016H17.3287V35.9501H12.8492V12.6893Z" fill="white"/>
<path d="M35.8988 35.9494H32.5357C32.4268 35.3808 32.3569 34.8055 32.3265 34.2274C31.5908 35.8607 30.0965 36.298 28.659 36.298C25.0384 36.298 24.0212 33.6044 24.0212 29.804V18.8598C24.0212 15.293 25.4972 12.3403 29.9352 12.3403C35.2918 12.3403 35.8307 16.2379 35.8307 18.5835V19.63H31.3269V18.3499C31.3269 17.2222 31.1894 16.1776 29.9476 16.1776C28.9232 16.1776 28.5466 16.927 28.5466 18.4424V30.3657C28.5466 31.9492 29.0571 32.5288 29.9476 32.5288C31.0359 32.5288 31.407 31.6817 31.407 29.7701V26.4343H29.8675V22.6592H35.8985L35.8988 35.9494Z" fill="white"/>
</svg>
